<svg xmlns="http://www.w3.org/2000/svg" version="1.1" xmlns:xlink="http://www.w3.org/1999/xlink" xmlns:svgjs="http://svgjs.com/svgjs" width="1440" height="560" preserveAspectRatio="none" viewBox="0 0 1440 560">
    <g mask="url(&quot;#SvgjsMask1010&quot;)" fill="none">
        <rect width="1440" height="560" x="0" y="0" fill="rgba(33, 33, 33, 1)"></rect>
        <path d="M720 793.08C868.86 796.86 1035.05 805.64 1139.29 699.29 1242.97 593.49 1217.86 428.03 1222.78 280 1227.98 123.69 1264.41-44.85 1167.99-167.99 1063.71-301.21 888.54-377.11 720-362.11 561.12-347.99 454.17-211.33 345.1-94.9 241.28 15.91 122.92 128.25 118.32 280 113.58 434.88 203.7 577.85 321.59 678.41 430.89 771.6 576.39 789.4 720 793.08" fill="rgba(56, 53, 136, 0.9)"></path>
        <path d="M720 659.24C830.02 662.02 952.87 668.52 1029.91 589.91 1106.55 511.71 1087.98 389.41 1091.62 280 1095.46 164.47 1122.39 39.89 1051.13-51.13 974.05-149.59 844.58-205.69 720-194.61 602.56-184.17 523.51-83.15 442.9 2.9 366.16 84.81 278.68 167.83 275.28 280 271.78 394.48 338.38 500.15 425.53 574.47 506.31 643.36 613.85 656.52 720 659.24" fill="rgba(242, 140, 24, 0.9)"></path>
        <path d="M720 525.39C791.19 527.19 870.68 531.39 920.53 480.53 970.12 429.93 958.11 350.8 960.46 280 962.95 205.24 980.37 124.64 934.26 65.74 884.38 2.03 800.61-34.27 720-27.1 644.01-20.34 592.86 45.02 540.7 100.7 491.05 153.7 434.44 207.42 432.24 280 429.97 354.07 473.07 422.45 529.46 470.54 581.73 515.11 651.32 523.63 720 525.39" fill="rgba(73, 69, 187, 0.9)"></path>
        <path d="M720 391.54C752.36 392.36 788.49 394.27 811.15 371.15 833.69 348.15 828.23 312.18 829.3 280 830.43 246.02 838.35 209.38 817.39 182.61 794.72 153.65 756.64 137.15 720 140.41 685.46 143.48 662.21 173.19 638.5 198.5 615.93 222.59 590.2 247.01 589.2 280 588.17 313.67 607.76 344.75 633.39 366.61 657.15 386.87 688.78 390.74 720 391.54" fill="rgba(243, 153, 52, 0.9)"></path>
    </g>
    <defs>
        <mask id="SvgjsMask1010">
            <rect width="1340" height="560" fill="#ffffff"></rect>
        </mask>
    </defs>
</svg>